<?xml version="1.0" standalone="no"?>
<!DOCTYPE svg PUBLIC "-//W3C//DTD SVG 20010904//EN"
 "http://www.w3.org/TR/2001/REC-SVG-20010904/DTD/svg10.dtd">
<svg version="1.0" xmlns="http://www.w3.org/2000/svg"
 width="192.000000pt" height="192.000000pt" viewBox="0 0 192.000000 192.000000"
 preserveAspectRatio="xMidYMid meet">
<metadata>
Created by potrace 1.10, written by Peter Selinger 2001-2011
</metadata>
<g transform="translate(0.000000,192.000000) scale(0.100000,-0.100000)"
fill="#000000" stroke="none">
<path d="M395 1736 c-46 -20 -83 -70 -103 -137 l-17 -60 -108 3 c-59 2 -107 1
-107 -2 0 -3 27 -32 61 -65 33 -33 79 -81 101 -107 l40 -48 -93 -95 c-127
-129 -140 -156 -98 -209 50 -64 116 -72 165 -21 l33 35 -1 -112 c-1 -239 76
-348 267 -378 117 -19 199 -64 256 -143 26 -36 29 -48 29 -118 l0 -77 -41 5
c-33 5 -41 3 -37 -8 4 -11 38 -15 160 -17 134 -2 157 0 169 14 12 15 10 16
-29 13 l-42 -5 0 168 0 168 150 0 150 0 0 250 0 250 24 15 c19 13 29 14 45 5
32 -17 43 -46 40 -113 -2 -40 1 -62 9 -65 9 -3 12 20 12 78 0 73 -3 83 -25
105 -43 44 -115 23 -130 -38 -3 -12 -5 -118 -3 -235 2 -116 1 -212 -2 -212
-26 0 -30 35 -30 248 l0 224 34 34 c26 26 42 34 71 34 85 0 128 -59 124 -168
-1 -38 2 -66 7 -64 5 1 9 38 9 81 -1 88 -15 119 -68 151 -36 22 -78 26 -110 8
-21 -11 -21 -10 -6 13 29 43 98 37 156 -14 49 -43 63 -82 63 -173 0 -53 3 -75
12 -72 7 3 10 32 9 88 -3 114 -29 163 -105 202 -40 20 -55 21 -191 3 l-40 -5
50 25 c85 42 183 29 248 -33 48 -46 61 -80 67 -182 6 -113 24 -124 21 -12 -3
108 -17 149 -72 204 -50 50 -94 68 -169 68 -45 0 -141 -37 -154 -59 -7 -11
-46 -16 -46 -6 0 15 61 57 110 76 129 50 295 -14 344 -132 8 -19 17 -80 20
-135 6 -122 26 -141 26 -25 0 166 -37 241 -149 298 -54 28 -73 33 -135 33 -96
0 -157 -22 -214 -77 -28 -26 -54 -43 -65 -41 -30 5 64 95 131 126 47 22 71 27
137 27 93 0 164 -27 233 -89 65 -59 85 -111 90 -238 3 -60 9 -111 15 -115 7
-4 8 32 5 108 -6 135 -24 185 -88 249 -134 134 -349 143 -484 19 -30 -27 -58
-59 -61 -70 -4 -12 -15 -19 -31 -19 l-25 0 30 43 c41 60 94 105 161 136 48 23
68 26 155 26 93 0 105 -2 166 -32 81 -40 144 -101 177 -173 22 -47 27 -73 30
-172 4 -95 7 -118 19 -118 23 0 8 216 -20 290 -25 69 -110 156 -187 193 -187
90 -415 30 -520 -137 -19 -30 -41 -55 -47 -56 -7 0 -13 2 -13 5 0 15 42 85 74
122 175 202 510 185 676 -36 52 -69 68 -125 76 -263 4 -65 11 -118 16 -118 8
0 3 144 -8 237 -8 67 -59 156 -121 213 -153 140 -351 167 -533 75 -65 -33
-149 -119 -179 -184 -16 -34 -30 -51 -43 -51 -24 0 -23 2 13 71 35 65 120 151
189 192 73 42 161 60 268 55 84 -5 101 -9 176 -46 106 -53 177 -123 224 -219
29 -61 36 -89 43 -175 4 -57 8 -118 9 -136 0 -21 4 -32 11 -30 16 5 12 194 -6
263 -23 87 -63 154 -129 220 -165 163 -391 198 -598 94 -84 -42 -176 -136
-218 -222 -32 -65 -35 -68 -66 -65 -30 3 -47 20 -161 163 -71 88 -139 165
-152 172 -24 11 -23 12 15 19 87 15 144 62 174 141 33 88 40 83 -132 83 -105
-1 -163 -5 -183 -14z m280 -36 c-3 -5 0 -10 7 -10 9 0 9 -3 -2 -10 -8 -5 -10
-10 -5 -10 6 0 5 -4 -2 -8 -6 -4 -13 -14 -15 -22 -5 -23 -52 -55 -113 -75 -30
-11 -55 -23 -55 -28 0 -4 -4 -6 -10 -2 -5 3 -40 8 -77 11 -37 3 -71 8 -75 10
-27 17 29 127 72 143 37 13 283 14 275 1z m-181 -210 c41 -21 113 -102 96
-108 -6 -2 -10 -10 -10 -19 0 -10 6 -12 19 -8 11 3 22 1 26 -5 4 -6 -4 -10
-19 -10 -15 0 -26 -6 -26 -13 0 -10 13 -13 41 -13 23 1 44 -4 46 -9 2 -6 -15
-9 -42 -7 -33 3 -45 0 -45 -10 0 -10 15 -13 57 -13 39 0 58 -4 61 -14 4 -11
-7 -13 -57 -8 -50 5 -61 4 -61 -9 0 -12 12 -13 68 -8 56 5 71 3 82 -11 12 -15
7 -16 -65 -14 -53 1 -80 -2 -83 -9 -3 -9 23 -12 87 -12 52 0 93 -4 96 -11 5
-7 -22 -10 -86 -8 -66 1 -94 -2 -97 -10 -3 -10 15 -12 72 -9 74 3 97 -4 56
-17 -11 -4 -44 -5 -72 -4 -33 2 -53 -1 -56 -9 -2 -8 12 -12 45 -12 l48 0 65
-82 c133 -168 163 -209 157 -215 -11 -10 -34 16 -140 151 -100 128 -103 131
-138 128 l-36 -3 1 -87 c1 -72 5 -93 24 -124 40 -64 74 -74 278 -77 123 -2
181 -6 186 -14 11 -18 -322 -22 -382 -6 -51 15 -121 78 -138 127 -9 26 -8 30
4 25 8 -3 14 0 14 6 0 7 -44 11 -140 11 l-140 0 0 286 0 287 81 -6 c51 -4 97
-14 123 -27z m-258 14 c19 -5 21 -11 18 -52 -3 -25 -6 -48 -8 -50 -2 -2 -25
18 -50 45 -39 41 -44 49 -29 55 23 9 43 9 69 2z m-10 -471 c-14 -13 -39 -26
-56 -29 -25 -5 -30 -3 -30 12 0 15 -2 16 -9 5 -7 -10 -12 -8 -25 10 -9 13 -16
30 -16 39 0 24 39 82 50 75 6 -4 9 -3 8 2 -4 10 38 53 51 53 6 0 13 4 16 10 4
6 -1 7 -12 4 -10 -3 -4 3 12 13 l30 20 3 -96 c3 -90 2 -96 -22 -118z m529 117
c-3 -5 -1 -10 4 -10 6 0 11 5 11 10 0 6 5 10 11 10 5 0 7 -4 4 -10 -3 -5 2
-11 12 -11 10 -1 23 -2 29 -3 15 -2 67 -56 83 -88 8 -16 17 -26 19 -23 10 9
31 -17 25 -31 -3 -9 1 -14 13 -14 9 0 15 -2 12 -5 -3 -3 20 -30 50 -60 31 -30
51 -55 44 -55 -7 0 -10 -4 -7 -10 6 -10 -5 -13 -40 -12 -11 1 -41 2 -67 3 -27
1 -48 6 -48 11 0 5 -4 6 -10 3 -5 -3 -7 0 -4 9 3 9 -2 17 -15 21 -12 3 -19 11
-16 16 4 5 1 9 -4 9 -6 0 -11 10 -11 23 0 18 -2 19 -10 7 -7 -11 -10 -12 -10
-2 0 19 -36 63 -44 54 -4 -3 -4 0 -1 9 3 9 -7 26 -25 44 -16 16 -30 35 -30 42
0 7 -3 12 -7 11 -16 -6 -11 12 10 36 23 26 33 34 22 16z m185 -10 c0 -3 -7
-14 -15 -24 -14 -19 -15 -19 -35 -1 -28 25 -25 30 15 30 19 0 35 -2 35 -5z
m210 -5 c0 -6 -5 -16 -12 -23 -9 -9 -16 -8 -30 5 -25 22 -23 28 12 28 17 0 30
-5 30 -10z m-112 -15 c-7 -11 -16 -20 -19 -20 -3 0 -14 9 -24 20 -18 20 -17
20 19 20 34 0 35 -1 24 -20z m222 11 c0 -5 -6 -14 -13 -20 -11 -8 -18 -6 -32
9 -18 20 -17 20 13 20 18 0 32 -4 32 -9z m-270 -59 c0 -12 -28 -48 -32 -42 -2
3 -12 15 -22 28 l-19 22 36 0 c21 0 37 -4 37 -8z m110 1 c-1 -11 -29 -48 -33
-42 -1 2 -11 14 -21 27 l-19 22 36 0 c21 0 37 -3 37 -7z m110 0 c-1 -11 -29
-48 -33 -42 -1 2 -11 14 -21 27 l-19 22 36 0 c21 0 37 -3 37 -7z m-489 -123
c100 -128 110 -143 85 -134 -15 6 -147 165 -177 212 -8 12 -19 20 -26 18 -7
-3 -10 1 -6 10 11 29 32 11 124 -106z m504 -120 c0 -104 -2 -190 -4 -190 -2 0
-10 8 -17 18 -21 27 -19 305 2 337 9 14 17 25 18 25 0 0 1 -85 1 -190z m-175
173 c0 -5 -7 -17 -15 -27 -15 -19 -15 -19 -35 2 -27 29 -26 32 15 32 19 0 35
-3 35 -7z m110 0 c-1 -11 -29 -48 -33 -42 -1 2 -11 14 -21 27 l-19 22 36 0
c21 0 37 -3 37 -7z m-478 -121 c39 -50 46 -80 13 -52 -29 24 -105 132 -105
148 1 18 13 5 92 -96z m-340 40 c7 2 16 7 20 12 3 5 12 -10 18 -35 26 -94 85
-180 165 -236 23 -17 27 -24 18 -34 -8 -8 -9 -19 -3 -35 9 -23 8 -24 -33 -24
-91 1 -178 72 -211 172 -9 29 -19 86 -23 126 -6 73 -6 74 15 63 12 -6 27 -10
34 -9z m88 -30 c0 -26 59 -119 95 -151 87 -76 166 -92 439 -90 183 1 210 -1
225 -16 15 -15 -1 -16 -249 -13 -224 4 -272 7 -312 22 -27 10 -48 24 -48 32 0
7 -6 11 -14 8 -19 -7 -109 85 -135 139 -12 25 -24 63 -27 84 -5 36 -4 37 10
19 9 -11 16 -26 16 -34z m53 -5 c33 -74 79 -121 145 -154 57 -28 59 -28 284
-31 182 -3 229 -6 239 -18 18 -21 -392 -20 -476 2 -67 17 -109 40 -100 54 3 6
0 7 -8 4 -30 -11 -127 132 -127 188 0 24 22 2 43 -45z m57 -2 c29 -56 92 -109
148 -125 20 -5 123 -10 228 -10 165 0 193 -2 198 -16 5 -14 -17 -15 -212 -12
-205 3 -220 4 -265 27 -27 13 -52 33 -56 45 -5 11 -12 19 -17 17 -12 -6 -61
67 -70 102 -11 45 17 29 46 -28z m570 48 c0 -5 -7 -16 -14 -26 -13 -16 -15
-16 -30 8 -16 25 -16 25 14 25 16 0 30 -3 30 -7z m60 -115 l0 -112 -21 21
c-27 27 -30 123 -5 171 9 18 19 32 21 32 3 0 5 -50 5 -112z m-62 -20 l-3 -23
-13 23 c-11 19 -11 26 0 39 12 15 13 15 16 0 2 -9 2 -27 0 -39z m-477 -175
c36 -14 91 -17 314 -21 256 -4 295 -8 295 -33 0 -5 -147 -9 -330 -9 l-330 0 0
40 c0 22 2 40 4 40 2 0 23 -8 47 -17z m189 -148 l0 -64 -44 43 c-24 25 -61 54
-82 65 l-39 20 83 1 82 0 0 -65z m150 1 l0 -65 -51 50 c-28 27 -55 49 -60 49
-5 0 -9 7 -9 15 0 12 13 15 60 15 l60 0 0 -64z m-29 -80 c26 -35 29 -47 29
-115 l0 -76 -60 0 -59 0 -3 138 c-2 76 -1 141 1 143 7 6 59 -45 92 -90z"/>
<path d="M396 1414 c-19 -18 -21 -55 -4 -72 7 -7 24 -12 38 -12 34 0 50 17 50
52 0 43 -53 64 -84 32z"/>
</g>
</svg>
